<svg width="256" height="256" viewBox="0 0 256 256" fill="none" xmlns="http://www.w3.org/2000/svg">
  <rect width="256" height="256" rx="42" fill="#F7F3E8"/>
  <path d="M25 210L86 24H132L192 210H149L138 173H79L67 210H25ZM91 136H127L109 79L91 136Z" fill="#0B1E3C"/>
  <path d="M122 24H183C203.667 24 220.167 29.6667 232.5 41C244.833 52 251 67.8333 251 88.5V146.5C251 167.167 244.833 183 232.5 194C220.167 204.667 203.667 210 183 210H122V24ZM165 62V172H181C193.667 172 203.5 169 210.5 163C217.5 157 221 148 221 136V98C221 86 217.5 77 210.5 71C203.5 65 193.667 62 181 62H165Z" fill="#0B1E3C"/>
  <path d="M146 23H221" stroke="#C9A54C" stroke-width="8" stroke-linecap="round"/>
  <path d="M147 40H215C225.5 40 234.5 42.5 242 47.5" stroke="#C9A54C" stroke-width="8" stroke-linecap="round"/>
</svg>
